<?xml version="1.0" standalone="no"?><!DOCTYPE svg PUBLIC "-//W3C//DTD SVG 1.1//EN" "http://www.w3.org/Graphics/SVG/1.1/DTD/svg11.dtd"><svg t="1598643223451" class="icon" viewBox="0 0 1024 1024" version="1.1" xmlns="http://www.w3.org/2000/svg" p-id="14499" xmlns:xlink="http://www.w3.org/1999/xlink" width="512" height="512"><defs><style type="text/css"></style></defs><path d="M507.107556 1008.791704c-153.979259 0-237.037037-257.668741-237.037037-500.072297h94.814814c0 249.761185 84.252444 409.144889 142.222223 409.144889 32.237037 0 81.635556-54.954667 113.891555-175.653926l91.875556 22.584889c-41.453037 155.079111-116.432593 243.996444-205.748148 243.996445zM148.15763 527.227259C46.838519 423.120593 13.880889 327.736889 55.48563 258.635852c35.707259-59.240296 119.125333-83.114667 235.14074-67.109926 101.262222 14.051556 220.254815 56.737185 335.03763 120.244148l-47.407407 78.791111c-104.580741-57.912889-211.531852-96.597333-301.188741-109.018074-70.637037-9.765926-125.383111-0.910222-139.472593 22.565926-14.601481 24.272593 4.41837 83.437037 79.928889 160.995556L148.138667 527.17037v0.056889z m477.487407 178.346667l-47.407407-78.791111c225.583407-124.833185 327.395556-274.507852 298.382222-322.692741-15.018667-24.993185-83.892148-39.082667-199.300741-10.903704l-23.36237-88.158814c151.096889-36.826074 262.162963-17.256296 304.829629 53.665185 76.932741 127.81037-114.213926 325.632-333.141333 446.881185z" fill="#DA621E" p-id="14500"></path><path d="M507.107556 8.590222c153.941333 0 237.037037 257.687704 237.037037 500.072297h-94.814815c0-249.742222-84.233481-409.144889-142.222222-409.144889-26.30163 0-64.758519 37.603556-95.762963 119.694222a800.521481 800.521481 0 0 0-92.444445-22.812445C362.666667 75.150222 428.942222 8.590222 507.107556 8.590222zM816.165926 573.269333a783.568593 783.568593 0 0 0 66.692741-65.137777c87.04 96.199111 114.820741 185.931852 75.851852 250.614518-28.444444 47.198815-87.172741 71.86963-168.523852 71.926519a485.56563 485.56563 0 0 1-66.56-4.911408c-101.300148-13.956741-220.292741-56.699259-335.018667-120.187259l47.407407-78.791111c104.523852 57.912889 211.474963 96.597333 301.131852 109.018074 70.618074 9.728 125.383111 0.910222 139.472593-22.509037 13.349926-22.186667-1.706667-73.329778-60.453926-140.022519z m-521.955556 159.668148a740.882963 740.882963 0 0 0 25.46726 87.912297c-34.436741 6.371556-66.56 9.784889-95.687111 9.784889-81.047704 0-139.946667-24.424296-168.523852-71.831704-76.98963-127.924148 114.157037-325.726815 333.084444-446.938074l47.407408 78.734222C210.488889 515.489185 108.562963 665.144889 137.576296 713.253926c13.236148 21.959111 67.166815 35.00563 156.634074 19.626667v0.056888z" fill="#F1AC8B" p-id="14501"></path></svg>