<?xml version="1.0" standalone="no"?><!DOCTYPE svg PUBLIC "-//W3C//DTD SVG 1.1//EN" "http://www.w3.org/Graphics/SVG/1.1/DTD/svg11.dtd"><svg t="1598643183603" class="icon" viewBox="0 0 1024 1024" version="1.1" xmlns="http://www.w3.org/2000/svg" p-id="9160" xmlns:xlink="http://www.w3.org/1999/xlink" width="512" height="512"><defs><style type="text/css"></style></defs><path d="M967.424 867.2256L740.6592 294.144V133.632h47.7696a41.216 41.216 0 0 0 0-82.432H235.52a41.216 41.216 0 1 0 0 82.432h47.7696v160.512L56.5248 867.2256c-3.4816 9.0112-5.3248 18.432-5.3248 28.0064C51.2 938.0352 86.8352 972.8 130.6112 972.8h762.7264c9.7792 0 19.456-1.8432 28.672-5.2224 40.96-15.36 61.2864-60.3648 45.4144-100.352z" fill="#0774A7" p-id="9161"></path><path d="M153.6 913.5104l100.352-275.6096c45.5168 22.4256 41.1648 33.5872 93.6448 33.5872 77.9264 0 151.808-26.6752 210.5344-74.4448 43.1616-34.9696 59.8016-60.7744 117.0944-60.7744 44.5952 0 72.192 23.4496 109.312 45.2608L921.6 913.5104H153.6z" fill="#29D765" p-id="9162"></path></svg>