<?xml version="1.0" standalone="no"?><!DOCTYPE svg PUBLIC "-//W3C//DTD SVG 1.1//EN" "http://www.w3.org/Graphics/SVG/1.1/DTD/svg11.dtd"><svg t="1598643108979" class="icon" viewBox="0 0 1024 1024" version="1.1" xmlns="http://www.w3.org/2000/svg" p-id="5769" xmlns:xlink="http://www.w3.org/1999/xlink" width="512" height="512"><defs><style type="text/css"></style></defs><path d="M324.403 704.102H180.06a8.192 8.192 0 0 1-8.192-8.192V133.94c0-4.506 3.687-8.193 8.192-8.193h144.343c4.506 0 8.192 3.687 8.192 8.192V695.91a8.192 8.192 0 0 1-8.192 8.192z m244.613-75.325H424.632a8.192 8.192 0 0 1-8.192-8.192V133.939c0-4.505 3.687-8.192 8.192-8.192h144.384c4.506 0 8.192 3.687 8.192 8.192v486.646a8.192 8.192 0 0 1-8.192 8.192z m239.207-100.352H663.839a8.192 8.192 0 0 1-8.192-8.192V133.939c0-4.505 3.686-8.192 8.192-8.192h144.384c4.505 0 8.192 3.687 8.192 8.192v386.253a8.192 8.192 0 0 1-8.192 8.233z" fill="#586A96" p-id="5770"></path><path d="M569.016 898.253H424.632a8.192 8.192 0 0 1-8.192-8.192V581.837c0-4.506 3.687-8.192 8.192-8.192h144.384c4.506 0 8.192 3.686 8.192 8.192V890.06a8.192 8.192 0 0 1-8.192 8.192z" fill="#346BAA" p-id="5771"></path><path d="M324.403 898.253H180.06a8.192 8.192 0 0 1-8.192-8.192V696.77c0-4.506 3.687-8.192 8.192-8.192h144.343c4.506 0 8.192 3.686 8.192 8.192v193.29a8.192 8.192 0 0 1-8.192 8.192z" fill="#43A3D4" p-id="5772"></path><path d="M808.223 898.253H663.839a8.192 8.192 0 0 1-8.192-8.192V367.493c0-4.505 3.686-8.192 8.192-8.192h144.384c4.505 0 8.192 3.687 8.192 8.192v522.568a8.192 8.192 0 0 1-8.192 8.192z" fill="#64B064" p-id="5773"></path><path d="M31.293 880.599v7.332c0 5.693 4.629 10.322 10.322 10.322h940.77a10.322 10.322 0 0 0 10.322-10.322v-7.332a10.322 10.322 0 0 0-10.322-10.322H41.615A10.404 10.404 0 0 0 31.293 880.6z" fill="#4B7AB5" p-id="5774"></path><path d="M41.615 898.253h7.332A10.322 10.322 0 0 0 59.27 887.93V136.069a10.322 10.322 0 0 0-10.322-10.322h-7.332a10.322 10.322 0 0 0-10.322 10.322v751.862c0 5.652 4.67 10.322 10.322 10.322z" fill="#4B7AB5" p-id="5775"></path><path d="M101.95 755.425a16.384 16.384 0 0 1-7.046-31.17l282.624-134.882L616.49 182.477a16.425 16.425 0 0 1 26.01-2.99l261.079 274.145a16.343 16.343 0 0 1-0.615 23.142 16.343 16.343 0 0 1-23.142-0.573L633.733 217.784 403.251 610.263a16.18 16.18 0 0 1-7.086 6.472L108.954 753.787a15.278 15.278 0 0 1-7.005 1.638z" fill="#43A3D4" p-id="5776"></path></svg>